PathFileType	4	(X/Y/Z)	/Users/itak/Documents/Research/Walk-IL/dataset/trc/00455_00167.trc
DataRate	CameraRate	NumFrames	NumMarkers	Units	OrigDataRate	OrigDataStartFrame	OrigNumFrames
100.000000	100.000000	4	53	mm	100.000000	69	553
Frame#	Time	RPSI			LPSI			L3			STRN			T10			C7			CLAV			RBAK			LBAK			LSHO			LUPA			LAEL			LAOL			LWTS			LWPS			LFRA			LIFD			LHPS			LHTS			RSHO			RUPA			RAEL			RAOL			RWTS			RWPS			RFRA			RIFD			RHTS			RHPS			RBHD			LFHD			RFHD			LBHD			LHIP			RHIP			RASI			LASI			LKNE			LTHI			LANK			LTIP			LTOE			LMT1			LMT5			LHEE			RKNE			RTHI			RANK			RTIP			RTOE			RMT1			RMT5			RHEE			
		X1	Y1	Z1	X2	Y2	Z2	X3	Y3	Z3	X4	Y4	Z4	X5	Y5	Z5	X6	Y6	Z6	X7	Y7	Z7	X8	Y8	Z8	X9	Y9	Z9	X10	Y10	Z10	X11	Y11	Z11	X12	Y12	Z12	X13	Y13	Z13	X14	Y14	Z14	X15	Y15	Z15	X16	Y16	Z16	X17	Y17	Z17	X18	Y18	Z18	X19	Y19	Z19	X20	Y20	Z20	X21	Y21	Z21	X22	Y22	Z22	X23	Y23	Z23	X24	Y24	Z24	X25	Y25	Z25	X26	Y26	Z26	X27	Y27	Z27	X28	Y28	Z28	X29	Y29	Z29	X30	Y30	Z30	X31	Y31	Z31	X32	Y32	Z32	X33	Y33	Z33	X34	Y34	Z34	X35	Y35	Z35	X36	Y36	Z36	X37	Y37	Z37	X38	Y38	Z38	X39	Y39	Z39	X40	Y40	Z40	X41	Y41	Z41	X42	Y42	Z42	X43	Y43	Z43	X44	Y44	Z44	X45	Y45	Z45	X46	Y46	Z46	X47	Y47	Z47	X48	Y48	Z48	X49	Y49	Z49	X50	Y50	Z50	X51	Y51	Z51	X52	Y52	Z52	X53	Y53	Z53	

70	0.6900000000000001	-1271.827270507812	962.5736694335938	-538.4121704101562	-1273.861083984375	962.5682983398438	-679.6679077148438	-1264.806640625	1053.860229492188	-595.6675415039062	-1006.715209960938	1257.5927734375	-620.4197998046875	-1289.643310546875	1178.024291992188	-599.15673828125	-1228.322998046875	1446.960815429688	-591.2688598632812	-1045.652954101562	1369.018920898438	-621.05322265625	-1283.612060546875	1327.403564453125	-491.2146911621094	-1269.913208007812	1398.881469726562	-688.0179443359375	-1175.536010742188	1423.761596679688	-777.3396606445312	-1184.834716796875	1302.4912109375	-873.5026245117188	-1147.361938476562	1084.2509765625	-898.8241577148438	-1228.943359375	1069.867309570312	-836.6417236328125	-1060.560180664062	887.656982421875	-839.9639282226562	-1103.1923828125	867.800048828125	-898.6500854492188	-1120.263549804688	996.889892578125	-902.8303833007812	-1046.9072265625	717.9486694335938	-843.0880126953125	-1091.352416992188	790.4373779296875	-896.6422729492188	-1040.406005859375	801.8233642578125	-846.5775756835938	-1148.081176757812	1418.418701171875	-435.9631652832031	-1157.025024414062	1354.876220703125	-359.764404296875	-1121.2373046875	1066.1806640625	-312.7180480957031	-1181.291015625	1048.771484375	-337.9970703125	-1029.215698242188	866.3189086914062	-393.4175415039062	-1076.633422851562	848.34423828125	-320.5006103515625	-1112.364501953125	1007.138366699219	-306.9945678710938	-1024.574584960938	709.9091186523438	-390.2174377441406	-1006.757080078125	769.3189086914062	-386.2213745117188	-1057.529541015625	763.3547973632812	-328.4530944824219	-1131.8994140625	1645.909057617188	-511.8764343261719	-1007.528198242188	1655.248779296875	-676.9806518554688	-998.1213989257812	1655.1865234375	-546.5940551757812	-1160.812377929688	1651.200805664062	-687.1074829101562	-1143.453369140625	863.2904663085938	-802.4617309570312	-1151.729858398438	859.8943481445312	-401.7779541015625	-1048.099853515625	902.4581298828125	-467.0951232910156	-1041.349853515625	900.6272583007812	-725.6835327148438	-1155.424926757812	444.1939086914062	-764.044921875	-1122.912353515625	595.3072509765625	-788.1316528320312	-1247.847778320312	39.98754119873047	-749.6697387695312	-1172.74072265625	297.7218627929688	-776.5484008789062	-1006.861938476562	43.09514617919922	-706.6117553710938	-1077.925415039062	50.36783599853516	-667.5035400390625	-1094.912475585938	46.10451889038086	-780.5932006835938	-1281.721557617188	45.98332595825195	-678.7943115234375	-1126.386474609375	467.8960266113281	-437.4097595214844	-1111.307739257812	728.6207275390625	-383.0932006835938	-1202.908569335938	42.7965202331543	-429.581787109375	-1131.477661132812	323.7427368164062	-428.4457702636719	-992.6221923828125	46.94007110595703	-498.302001953125	-1059.425537109375	52.20371246337891	-529.4384765625	-1066.896240234375	48.03396987915039	-420.6474304199219	-1272.976806640625	34.04307556152344	-469.3326110839844	
71	0.7000000000000001	-1271.57421875	962.5951538085938	-538.7212524414062	-1273.57470703125	962.57861328125	-679.96240234375	-1264.4716796875	1053.897583007812	-595.960205078125	-1006.385803222656	1257.550903320312	-620.7378540039062	-1289.268310546875	1178.070922851562	-599.4494018554688	-1227.859741210938	1446.9736328125	-591.560791015625	-1045.268920898438	1368.972900390625	-621.425537109375	-1283.1708984375	1327.456665039062	-491.4849548339844	-1269.521118164062	1398.918090820312	-688.2777099609375	-1175.212158203125	1423.75634765625	-777.6820678710938	-1184.569213867188	1302.46728515625	-873.7840576171875	-1147.249389648438	1084.176513671875	-899.0801391601562	-1228.806640625	1069.888916015625	-836.8267822265625	-1060.5576171875	887.5707397460938	-840.1522216796875	-1103.229736328125	867.7157592773438	-898.8545532226562	-1120.209106445312	996.79931640625	-903.0126953125	-1046.9619140625	717.831787109375	-843.1898193359375	-1091.49853515625	790.3569946289062	-896.8154907226562	-1040.756958007812	801.5908813476562	-846.801513671875	-1147.576416015625	1418.37890625	-436.2842102050781	-1156.536987304688	1354.843017578125	-360.0764770507812	-1121.017700195312	1066.115356445312	-313.0873413085938	-1181.101684570312	1048.75	-338.3866577148438	-1029.1630859375	866.1497802734375	-393.7583618164062	-1076.630249023438	848.2372436523438	-320.9286804199219	-1112.180786132812	1007.043701171875	-307.3810424804688	-1024.584716796875	709.790771484375	-390.63525390625	-1006.634338378906	769.199462890625	-386.5367431640625	-1057.591918945312	763.2107543945312	-328.8389587402344	-1131.426513671875	1645.901977539062	-512.1983032226562	-1007.091796875	1655.248413085938	-677.3419799804688	-997.6731567382812	1655.158935546875	-546.9613647460938	-1160.37646484375	1651.1611328125	-687.4222412109375	-1143.184692382812	863.2269287109375	-802.7047119140625	-1151.516357421875	859.8717651367188	-402.0430297851562	-1047.861450195312	902.4534912109375	-467.3927307128906	-1041.087768554688	900.533935546875	-725.943115234375	-1155.414184570312	444.2050170898438	-764.1890869140625	-1122.812744140625	595.2514038085938	-788.2711181640625	-1247.865600585938	39.9992790222168	-749.6810913085938	-1172.773193359375	297.7101440429688	-776.6663818359375	-1006.858703613281	43.08755111694336	-706.6031494140625	-1077.932250976562	50.36481094360352	-667.5073852539062	-1094.911010742188	46.09756851196289	-780.60009765625	-1281.748168945312	46.00117492675781	-678.777099609375	-1126.074829101562	467.8880920410156	-437.5993957519531	-1111.257690429688	728.6642456054688	-383.0099182128906	-1202.897216796875	42.81498336791992	-429.5980834960938	-1131.245239257812	323.7458190917969	-428.6278381347656	-992.6055908203125	46.91639709472656	-498.3150939941406	-1059.420166015625	52.21636962890625	-529.4403076171875	-1066.890625	48.02867126464844	-420.6511535644531	-1272.944091796875	34.07474899291992	-469.3736572265625	
72	0.71	-1271.30615234375	962.612548828125	-539.0635986328125	-1273.27099609375	962.5899047851562	-680.2694702148438	-1264.12353515625	1053.930053710938	-596.2744750976562	-1006.025146484375	1257.497314453125	-621.068603515625	-1288.875244140625	1178.114135742188	-599.7560424804688	-1227.376953125	1446.980346679688	-591.8587646484375	-1044.887451171875	1368.912719726562	-621.8071899414062	-1282.708251953125	1327.51513671875	-491.7770385742188	-1269.107666015625	1398.951904296875	-688.556396484375	-1174.885375976562	1423.757934570312	-778.0333862304688	-1184.292236328125	1302.436401367188	-874.0699462890625	-1147.129638671875	1084.10595703125	-899.3472900390625	-1228.65869140625	1069.910888671875	-837.0264282226562	-1060.535888671875	887.4686889648438	-840.3712768554688	-1103.265625	867.6302490234375	-899.0897827148438	-1120.176879882812	996.7151489257812	-903.247802734375	-1047.04736328125	717.7115478515625	-843.3408813476562	-1091.646362304688	790.281005859375	-897.0247192382812	-1041.207641601562	801.3140258789062	-847.1069946289062	-1147.056640625	1418.339477539062	-436.6215515136719	-1156.035034179688	1354.818359375	-360.4029541015625	-1120.768432617188	1066.0595703125	-313.48095703125	-1180.869140625	1048.736083984375	-338.8057556152344	-1029.11767578125	866.0028686523438	-394.1115417480469	-1076.600708007812	848.1362915039062	-321.3520812988281	-1111.963134765625	1006.957946777344	-307.7901611328125	-1024.565551757812	709.673583984375	-391.0577087402344	-1006.495727539062	769.0728759765625	-386.8603210449219	-1057.609130859375	763.0782470703125	-329.2380065917969	-1130.917114257812	1645.892822265625	-512.5254516601562	-1006.656982421875	1655.244384765625	-677.7273559570312	-997.203369140625	1655.126586914062	-547.3496704101562	-1159.91552734375	1651.128173828125	-687.7433471679688	-1142.907470703125	863.18115234375	-802.959228515625	-1151.288208007812	859.8492431640625	-402.3468322753906	-1047.608276367188	902.4406127929688	-467.6993103027344	-1040.81787109375	900.4290161132812	-726.2084350585938	-1155.416381835938	444.2190551757812	-764.332763671875	-1122.701293945312	595.1968994140625	-788.41455078125	-1247.8798828125	40.00973892211914	-749.6898193359375	-1172.815185546875	297.7044982910156	-776.7827758789062	-1006.8544921875	43.07788848876953	-706.5925903320312	-1077.9423828125	50.35998153686523	-667.513671875	-1094.908081054688	46.08706665039062	-780.6050415039062	-1281.784423828125	46.0292854309082	-678.7387084960938	-1125.744018554688	467.8771667480469	-437.8223571777344	-1111.2666015625	728.7091674804688	-382.8521118164062	-1202.884643554688	42.84132766723633	-429.6240539550781	-1131.002197265625	323.7476806640625	-428.8200378417969	-992.5835571289062	46.89102554321289	-498.32958984375	-1059.4140625	52.23373031616211	-529.439208984375	-1066.884399414062	48.02411270141602	-420.6531372070312	-1272.907958984375	34.114501953125	-469.4319152832031	
73	0.72	-1271.026489257812	962.624755859375	-539.4222412109375	-1272.951049804688	962.6008911132812	-680.5826416015625	-1263.765625	1053.957885742188	-596.6068115234375	-1005.63671875	1257.423217773438	-621.4120483398438	-1288.46826171875	1178.152465820312	-600.0703735351562	-1226.877807617188	1446.980224609375	-592.16162109375	-1044.515625	1368.83203125	-622.194580078125	-1282.228393554688	1327.575927734375	-492.0873413085938	-1268.675415039062	1398.981323242188	-688.85400390625	-1174.548828125	1423.7646484375	-778.3924560546875	-1184.007934570312	1302.397216796875	-874.363525390625	-1146.9990234375	1084.040405273438	-899.6224365234375	-1228.500610351562	1069.930786132812	-837.2410278320312	-1060.4970703125	887.3453369140625	-840.6170043945312	-1103.294799804688	867.539794921875	-899.3518676757812	-1120.163818359375	996.6372680664062	-903.5368041992188	-1047.184204101562	717.5831298828125	-843.544921875	-1091.790771484375	790.2109375	-897.2717895507812	-1041.751220703125	800.9905395507812	-847.49658203125	-1146.528930664062	1418.299682617188	-436.9703369140625	-1155.525390625	1354.7998046875	-360.7417297363281	-1120.4921875	1066.01025390625	-313.8941955566406	-1180.590942382812	1048.725708007812	-339.2506713867188	-1029.067260742188	865.8825073242188	-394.470458984375	-1076.539184570312	848.0440063476562	-321.7612915039062	-1111.712890625	1006.881103515625	-308.2172546386719	-1024.516723632812	709.5541381835938	-391.4718627929688	-1006.343566894531	768.9387817382812	-387.1791076660156	-1057.573852539062	762.95703125	-329.6458129882812	-1130.368896484375	1645.878173828125	-512.8573608398438	-1006.219116210938	1655.234008789062	-678.13525390625	-996.7109985351562	1655.091064453125	-547.7597045898438	-1159.434326171875	1651.098510742188	-688.0693969726562	-1142.62451171875	863.1488647460938	-803.2259521484375	-1151.044189453125	859.8256225585938	-402.6787109375	-1047.338256835938	902.4114990234375	-468.0079650878906	-1040.539184570312	900.3092651367188	-726.479736328125	-1155.433349609375	444.2335815429688	-764.4736938476562	-1122.58642578125	595.142822265625	-788.5670166015625	-1247.890258789062	40.01814651489258	-749.6956176757812	-1172.863647460938	297.7052001953125	-776.8966674804688	-1006.849975585938	43.06643676757812	-706.5809326171875	-1077.955810546875	50.35345077514648	-667.522216796875	-1094.9033203125	46.07279968261719	-780.60888671875	-1281.828125	46.06549453735352	-678.6815185546875	-1125.399169921875	467.8619384765625	-438.0729370117188	-1111.332275390625	728.7534790039062	-382.6238708496094	-1202.871459960938	42.87617492675781	-429.6601867675781	-1130.755859375	323.7484436035156	-429.0164184570312	-992.5568237304688	46.86360549926758	-498.3457336425781	-1059.403930664062	52.25328826904297	-529.4365844726562	-1066.877685546875	48.0207633972168	-420.6524047851562	-1272.869506835938	34.16223526000977	-469.5050964355469	
